<svg xmlns="http://www.w3.org/2000/svg" width="256" height="256" viewBox="0 0 100 100"><rect width="100" height="100" rx="20" fill="#000000"></rect><path d="M44.87 31.86L44.87 36.18L32.90 36.18L32.90 31.59Q32.90 30.88 32.41 30.33Q31.91 29.79 31.19 29.79L31.19 29.79L26.24 29.79Q25.52 29.79 25.03 30.33Q24.53 30.88 24.53 31.59L24.53 31.59L24.53 41.94Q24.53 42.66 25.03 43.20Q25.52 43.74 26.24 43.74L26.24 43.74L34.34 43.74Q45.50 43.92 45.50 55.63L45.50 55.63L45.50 68.13Q45.50 80.02 34.34 80.02L34.34 80.02L23.72 80.02Q12.56 80.02 12.56 68.13L12.56 68.13L12.56 62.10L24.53 62.10L24.53 68.58Q24.53 69.30 25.03 69.84Q25.52 70.38 26.24 70.38L26.24 70.38L31.82 70.38Q32.54 70.38 33.03 69.84Q33.53 69.30 33.53 68.58L33.53 68.58L33.53 57.15Q33.53 56.43 33.03 55.89Q32.54 55.35 31.82 55.35L31.82 55.35L23.72 55.35Q12.56 55.35 12.56 43.47L12.56 43.47L12.56 31.86Q12.56 19.98 23.72 19.98L23.72 19.98L33.71 19.98Q44.87 19.98 44.87 31.86L44.87 31.86ZM75.47 69.57L75.47 69.57L75.47 60.57L87.44 60.57L87.44 68.13Q87.44 80.02 76.28 80.02L76.28 80.02L64.94 80.02Q53.78 80.02 53.78 68.13L53.78 68.13L53.78 31.86Q53.78 19.98 64.94 19.98L64.94 19.98L76.28 19.98Q87.44 19.98 87.44 31.86L87.44 31.86L87.44 37.35L75.47 37.35L75.47 30.33Q75.47 29.61 74.97 29.07Q74.48 28.53 73.76 28.53L73.76 28.53L68.09 28.53Q67.37 28.53 66.88 29.07Q66.38 29.61 66.38 30.33L66.38 30.33L66.38 69.57Q66.38 70.29 66.88 70.83Q67.37 71.38 68.09 71.38L68.09 71.38L73.76 71.38Q74.48 71.38 74.97 70.83Q75.47 70.29 75.47 69.57Z" fill="#fff"></path></svg>